<svg xmlns="http://www.w3.org/2000/svg" viewBox="0 0 200 200">
  <defs><linearGradient id="background"><stop stop-color="#000"/><stop offset="1" stop-color="#192025"/></linearGradient></defs>
  <rect width="200" height="200" fill="url(#background)"/>
  <g fill="#fff" stroke="#fff" stroke-width=".2" transform="matrix(7.248065843621399 0 0 7.248065843621399 9.440178410192573 151.50187995879247)">
    <path d="M8.41-3.78Q8.41-4.53 7.88-4.95Q7.34-5.37 6.01-5.82Q4.67-6.27 3.82-6.69Q1.05-8.05 1.05-10.42Q1.05-11.6 1.74-12.5Q2.43-13.41 3.69-13.91Q4.95-14.41 6.52-14.41Q8.06-14.41 9.27-13.87Q10.49-13.32 11.16-12.31Q11.84-11.3 11.84-10H8.42Q8.42-10.87 7.89-11.35Q7.35-11.83 6.45-11.83Q5.53-11.83 5-11.42Q4.46-11.02 4.46-10.39Q4.46-9.84 5.05-9.4Q5.63-8.96 7.11-8.48Q8.58-8.01 9.53-7.46Q11.84-6.13 11.84-3.8Q11.84-1.93 10.43-.87Q9.02.2 6.57.2Q4.84.2 3.44-.42Q2.04-1.04 1.33-2.12Q.63-3.2.63-4.61H4.06Q4.06-3.47 4.65-2.92Q5.24-2.38 6.57-2.38Q7.42-2.38 7.92-2.75Q8.41-3.12 8.41-3.78ZM20.93-3.78Q20.93-4.53 20.4-4.95Q19.86-5.37 18.53-5.82Q17.19-6.27 16.34-6.69Q13.57-8.05 13.57-10.42Q13.57-11.6 14.26-12.5Q14.95-13.41 16.21-13.91Q17.47-14.41 19.04-14.41Q20.58-14.41 21.79-13.87Q23.01-13.32 23.68-12.31Q24.36-11.3 24.36-10H20.94Q20.94-10.87 20.41-11.35Q19.87-11.83 18.96-11.83Q18.05-11.83 17.51-11.42Q16.98-11.02 16.98-10.39Q16.98-9.84 17.57-9.4Q18.15-8.96 19.63-8.48Q21.1-8.01 22.05-7.46Q24.36-6.13 24.36-3.8Q24.36-1.93 22.95-.87Q21.54.2 19.09.2Q17.36.2 15.96-.42Q14.56-1.04 13.85-2.12Q13.14-3.2 13.14-4.61H16.58Q16.58-3.47 17.17-2.92Q17.76-2.38 19.09-2.38Q19.94-2.38 20.43-2.75Q20.93-3.12 20.93-3.78Z"/>
  </g>
</svg>
